#N canvas 601 28 987 923 12;
#X obj 91 157 + 1;
#X obj 34 166 f;
#X obj 34 92 tgl 20 0 empty empty empty 0 -10 0 12 #fcfcfc #000000 #000000 0 1;
#N canvas 735 389 450 250 (subpatch) 0;
#X array sequence 16 float 3;
#A 0 68.1005 66.3004 64.1147 62.0146 68.1862 67.4147 62.2289 62.6575 63.0861 64.4576 66.3005 62.4432 65.6147 71.1006 66.4719 66.9005;
#X coords 0 60 16 72 200 140 1 0 0;
#X restore 235 25 graph;
#X obj 145 178 bang;
#X obj 36 287 int;
#X obj 34 127 metro 1 240 permin;
#X obj 36 312 mtof;
#X obj 36 337 osc~;
#X obj 36 362 *~ 0.2;
#X obj 36 405 dac~;
#X obj 36 262 tabread sequence;
#X obj 145 205 array size sequence;
#X msg 140 329 0.2;
#X msg 141 364 0;
#X obj 92 224 %;
#X connect 0 0 4 0;
#X connect 0 0 15 0;
#X connect 1 0 0 0;
#X connect 1 0 11 0;
#X connect 2 0 6 0;
#X connect 4 0 12 0;
#X connect 5 0 7 0;
#X connect 6 0 1 0;
#X connect 7 0 8 0;
#X connect 8 0 9 0;
#X connect 9 0 10 0;
#X connect 9 0 10 1;
#X connect 11 0 5 0;
#X connect 12 0 15 1;
#X connect 13 0 9 1;
#X connect 14 0 9 1;
#X connect 15 0 1 1;
