#N canvas 449 281 1278 627 12;
#X obj 128 55 metro 200;
#X obj 128 26 tgl 20 0 empty empty empty 0 -10 0 12 #fcfcfc #000000 #000000 0 1;
#X obj 297 55 vsl 20 170 100 20000 0 0 empty empty empty 0 -9 0 12 #fcfcfc #000000 #000000 0 1;
#X floatatom 297 233 13 0 0 0 - - - 0;
#X obj 297 257 ftom;
#X floatatom 297 282 6 0 0 0 - - - 0;
#X obj 297 306 / 12;
#X floatatom 297 331 6 0 0 0 - - - 0;
#N canvas 567 217 928 604 karp 0;
#X obj 51 150 noise~;
#X obj 114 148 vline~;
#X obj 85 193 *~;
#X obj 227 71 mtof;
#X obj 227 106 expr 1000 / $f1;
#X floatatom 228 131 5 0 0 0 - - - 0;
#X msg 106 114 1 20 \, 0 10 20;
#X obj 229 184 *~ 0.99;
#X obj 227 24 inlet;
#X obj 229 218 lop~ 10000;
#X obj 229 259 outlet~;
#X obj 395 123 inlet;
#X obj 83 266 delwrite~ ks0;
#X obj 229 159 delread~ ks0;
#X connect 0 0 2 0;
#X connect 1 0 2 1;
#X connect 2 0 12 0;
#X connect 3 0 4 0;
#X connect 4 0 5 0;
#X connect 5 0 13 0;
#X connect 6 0 1 0;
#X connect 7 0 9 0;
#X connect 8 0 3 0;
#X connect 8 0 6 0;
#X connect 9 0 10 0;
#X connect 9 0 12 0;
#X connect 11 0 9 1;
#X connect 13 0 7 0;
#X restore 103 277 pd karp;
#X obj 193 409 dac~;
#X obj 142 325 *~ 0.1;
#X obj 92 195 bng 20 250 50 0 empty empty empty 0 -10 0 12 #fcfcfc #000000 #000000;
#X msg 101 230 60;
#N canvas 706 201 1160 764 karp 0;
#X obj 51 150 noise~;
#X obj 114 148 vline~;
#X obj 85 193 *~;
#X obj 227 71 mtof;
#X obj 227 106 expr 1000 / $f1;
#X floatatom 228 131 5 0 0 0 - - - 0;
#X msg 106 114 1 20 \, 0 10 20;
#X obj 229 184 *~ 0.99;
#X obj 227 24 inlet;
#X obj 229 218 lop~ 10000;
#X obj 229 259 outlet~;
#X obj 395 123 inlet;
#X obj 83 266 delwrite~ ks1;
#X obj 229 159 delread~ ks1;
#X connect 0 0 2 0;
#X connect 1 0 2 1;
#X connect 2 0 12 0;
#X connect 3 0 4 0;
#X connect 4 0 5 0;
#X connect 5 0 13 0;
#X connect 6 0 1 0;
#X connect 7 0 9 0;
#X connect 8 0 3 0;
#X connect 8 0 6 0;
#X connect 9 0 10 0;
#X connect 9 0 12 0;
#X connect 11 0 9 1;
#X connect 13 0 7 0;
#X restore 217 271 pd karp;
#X obj 128 81 int;
#X obj 177 82 + 1;
#X floatatom 128 131 5 0 0 0 - - - 0;
#X obj 117 196 bng 20 250 50 0 empty empty empty 0 -10 0 12 #fcfcfc #000000 #000000;
#X obj 143 197 bng 20 250 50 0 empty empty empty 0 -10 0 12 #fcfcfc #000000 #000000;
#X obj 167 197 bng 20 250 50 0 empty empty empty 0 -10 0 12 #fcfcfc #000000 #000000;
#X obj 198 366 rev1~;
#X floatatom 225 309 5 0 0 0 - - - 0;
#X msg 217 232 64;
#X obj 128 106 % 6;
#X obj 115 162 select 0 1 2 3 4 5;
#X msg 156 238 2000;
#X connect 0 0 14 0;
#X connect 1 0 0 0;
#X connect 2 0 3 0;
#X connect 3 0 4 0;
#X connect 3 0 13 1;
#X connect 4 0 5 0;
#X connect 5 0 6 0;
#X connect 6 0 7 0;
#X connect 8 0 10 0;
#X connect 10 0 20 0;
#X connect 11 0 12 0;
#X connect 12 0 8 0;
#X connect 13 0 10 0;
#X connect 14 0 15 0;
#X connect 14 0 23 0;
#X connect 15 0 14 1;
#X connect 16 0 24 0;
#X connect 17 0 12 0;
#X connect 18 0 12 0;
#X connect 19 0 22 0;
#X connect 20 0 9 0;
#X connect 20 0 9 1;
#X connect 21 0 20 1;
#X connect 22 0 13 0;
#X connect 23 0 16 0;
#X connect 24 0 11 0;
#X connect 24 1 17 0;
#X connect 24 2 18 0;
#X connect 24 3 19 0;
#X connect 25 0 8 1;
