#N canvas 844 55 1001 875 12;
#X obj 136 39 key;
#X floatatom 136 64 5 0 0 0 - - - 0;
#X obj 136 139 bng 20 250 50 0 empty empty empty 0 -10 0 12 #fcfcfc #000000 #000000;
#X obj 172 139 bng 20 250 50 0 empty empty empty 0 -10 0 12 #fcfcfc #000000 #000000;
#X obj 208 139 bng 20 250 50 0 empty empty empty 0 -10 0 12 #fcfcfc #000000 #000000;
#X obj 244 139 bng 20 250 50 0 empty empty empty 0 -10 0 12 #fcfcfc #000000 #000000;
#X msg 128 205 60;
#X msg 166 206 62;
#X msg 202 205 64;
#X msg 239 206 66;
#X obj 174 253 mtof;
#X obj 174 278 osc~;
#X obj 174 303 *~, f 5;
#X obj 174 328 *~ 0.2;
#X obj 174 353 dac~;
#X obj 286 233 vline~;
#X text 173 33 97 - a \, 115 - s \, 100 - d \, f - 102;
#X obj 136 115 select 97 115 100 102;
#X msg 286 206 1 100 \, 0 100 200;
#X connect 0 0 1 0;
#X connect 1 0 17 0;
#X connect 2 0 18 0;
#X connect 2 0 6 0;
#X connect 3 0 18 0;
#X connect 3 0 7 0;
#X connect 4 0 18 0;
#X connect 4 0 8 0;
#X connect 5 0 18 0;
#X connect 5 0 9 0;
#X connect 6 0 10 0;
#X connect 7 0 10 0;
#X connect 8 0 10 0;
#X connect 9 0 10 0;
#X connect 10 0 11 0;
#X connect 11 0 12 0;
#X connect 12 0 13 0;
#X connect 13 0 14 0;
#X connect 13 0 14 1;
#X connect 15 0 12 1;
#X connect 17 0 2 0;
#X connect 17 1 3 0;
#X connect 17 2 4 0;
#X connect 17 3 5 0;
#X connect 18 0 15 0;
