#N canvas 1003 363 826 467 12;
#X obj 423 206 line~;
#X obj 423 231 sqrt~;
#X obj 423 256 *~ 20;
#X obj 423 352 dac~;
#X obj 421 119 metro 1 120 permin;
#X obj 423 306 cos~;
#X obj 423 281 -~ 0.25;
#X msg 423 178 0 \, 1 200;
#X obj 573 202 noise~;
#X obj 573 227 hip~ 300;
#X obj 573 252 bp~ 5000 2;
#X obj 665 225 line~;
#X obj 565 326 *~;
#X obj 565 351 dac~;
#X msg 664 192 1 \, 0 200;
#X obj 665 250 pow~ 4;
#X obj 352 48 tgl 20 0 empty empty empty 0 -10 0 12 #fcfcfc #000000 #000000 0 1;
#X connect 0 0 1 0;
#X connect 1 0 2 0;
#X connect 2 0 6 0;
#X connect 4 0 7 0;
#X connect 4 0 14 0;
#X connect 5 0 3 0;
#X connect 5 0 3 1;
#X connect 6 0 5 0;
#X connect 7 0 0 0;
#X connect 8 0 9 0;
#X connect 9 0 10 0;
#X connect 10 0 12 0;
#X connect 11 0 15 0;
#X connect 12 0 13 0;
#X connect 12 0 13 1;
#X connect 14 0 11 0;
#X connect 15 0 12 1;
#X connect 16 0 4 0;
